<?xml version="1.0" encoding="UTF-8" standalone="no"?>
<!DOCTYPE svg PUBLIC "-//W3C//DTD SVG 1.1//EN" "http://www.w3.org/Graphics/SVG/1.1/DTD/svg11.dtd">
<svg width="100%" height="100%" viewBox="0 0 292 292" version="1.1" xmlns="http://www.w3.org/2000/svg" xmlns:xlink="http://www.w3.org/1999/xlink" xml:space="preserve" xmlns:serif="http://www.serif.com/" style="fill-rule:evenodd;clip-rule:evenodd;stroke-linejoin:round;stroke-miterlimit:2;">
    <g transform="matrix(1,0,0,1,-741.188,-126.464)">
        <g transform="matrix(0.291742,0,0,0.291742,887.04,483.265)">
            <clipPath id="_clip1">
                <rect x="-499.932" y="-1223.38" width="998.59" height="999.192"/>
            </clipPath>
            <g clip-path="url(#_clip1)">
                <g transform="matrix(1,0,0,1,-1507,-1223)">
                    <g transform="matrix(0.67605,0,0,2.10033,-337.348,-1554.22)">
                        <rect x="499.994" y="739.999" width="4456.3" height="1164.11" style="fill:none;"/>
                        <g>
                            <g transform="matrix(3.41614,0,0,1.09958,919.293,545.374)">
                                <path d="M746,189.99C746,182.821 740.179,177 733.01,177L325.99,177C318.821,177 313,182.821 313,189.99L313,597.01C313,604.179 318.821,610 325.99,610L733.01,610C740.179,610 746,604.179 746,597.01L746,189.99Z" style="fill:rgb(20,78,140);"/>
                                <g>
                                    <clipPath id="_clip2">
                                        <path d="M746,189.99C746,182.821 740.179,177 733.01,177L325.99,177C318.821,177 313,182.821 313,189.99L313,597.01C313,604.179 318.821,610 325.99,610L733.01,610C740.179,610 746,604.179 746,597.01L746,189.99Z"/>
                                    </clipPath>
                                    <g clip-path="url(#_clip2)">
                                        <path id="affinity_designer_icon" d="M746,189.99C746,182.821 740.179,177 733.01,177L325.99,177C318.821,177 313,182.821 313,189.99L313,597.01C313,604.179 318.821,610 325.99,610L733.01,610C740.179,610 746,604.179 746,597.01L746,189.99Z" style="fill:rgb(27,114,190);"/>
                                        <path id="affinity_designer_icon1" serif:id="affinity_designer_icon" d="M746,189.99C746,182.821 740.179,177 733.01,177L490.53,177L313,484.491L313,597.01C313,604.179 318.821,610 325.99,610L733.01,610C740.179,610 746,604.179 746,597.01L746,189.99Z" style="fill:rgb(5,104,170);"/>
                                        <path d="M513.198,610L483,610L405,453.186L557,177L581.46,177L422.333,452.617L513.197,610L513.198,610ZM595,610L519.693,610L430.956,456.303L746.03,456.303L746,485L595,610ZM520.15,177L494.86,177L313,491.99L313,535.795L520.15,177ZM564.08,450.638L478.434,450.638C468.437,450.638 459.141,445.408 454.142,436.752C449.15,428.105 449.15,417.418 454.142,408.771L497.025,334.496L564.08,450.638ZM746,450.638L570.575,450.638L500.272,328.87L587.955,177L619.725,177.02L573.58,334L595,378L746,437.38L746,450.638Z" style="fill:rgb(7,79,127);"/>
                                        <g transform="matrix(0.42285,0,0,0.42285,280.018,-579.481)">
                                            <path d="M1102,2813L582.167,2813L379.998,2462.83L1102,2462.83L1102,2813ZM536.087,2813L78,2813L78,2560.53L523.44,1789L697.52,1789L321.2,2440.81L536.087,2813ZM648.781,2422.9L472.775,2422.9C453.127,2422.9 434.972,2412.59 425.148,2395.57C415.336,2378.58 415.336,2357.57 425.148,2340.58C464.245,2272.86 513.2,2188.07 513.2,2188.07L648.781,2422.9ZM1102,2422.9L694.881,2422.9L536.24,2148.16L743.6,1789L1102,1789L1102,2422.9Z" style="fill:url(#_Radial3);"/>
                                        </g>
                                        <g transform="matrix(0.42285,0,0,0.42285,280.018,-579.481)">
                                            <path d="M1125.76,2831.83L593.04,2831.83L379.998,2462.83L1125.39,2462.83L1125.76,2831.83ZM321.2,2440.81L546.96,2831.83L46.573,2831.83L44.897,2617.86L535.807,1767.58L709.887,1767.58L321.2,2440.81ZM401.281,2475.12L600.134,2819.55L1113.46,2819.55L1113.12,2475.12L401.281,2475.12ZM542.901,1779.87L57.211,2621.11L58.765,2819.55L525.677,2819.55L307.011,2440.81L688.604,1779.87L542.901,1779.87ZM648.781,2422.9L472.315,2422.9L472.085,2422.89L471.626,2422.89L471.396,2422.88L471.167,2422.88L470.251,2422.84L470.023,2422.83L469.794,2422.82L469.566,2422.81L469.338,2422.79L469.11,2422.78L468.883,2422.76L468.655,2422.75L467.747,2422.67L467.521,2422.65L467.294,2422.63L467.068,2422.61L466.842,2422.58L466.616,2422.56L466.391,2422.53L466.165,2422.51L465.715,2422.45L465.491,2422.42L465.266,2422.39L464.594,2422.3L464.37,2422.26L464.147,2422.23L463.924,2422.19L463.701,2422.16L463.255,2422.08L462.811,2422L462.59,2421.96L462.368,2421.92L462.147,2421.88L461.926,2421.83L461.705,2421.79L461.485,2421.74L461.264,2421.7L461.044,2421.65L460.825,2421.6L460.605,2421.55L460.386,2421.51L460.167,2421.45L459.948,2421.4L459.512,2421.3L459.294,2421.24L458.86,2421.14L458.426,2421.02L457.562,2420.78L457.132,2420.66L456.918,2420.6L456.704,2420.53L456.49,2420.47L456.276,2420.4L456.063,2420.33L455.85,2420.27L455.637,2420.2L455.001,2419.99L454.79,2419.91L454.368,2419.77L454.158,2419.7L453.738,2419.54L453.529,2419.47L453.32,2419.39L453.112,2419.31L452.903,2419.23L452.695,2419.15L452.074,2418.91L451.868,2418.82L451.662,2418.74L451.456,2418.65L451.251,2418.57L450.841,2418.39L450.637,2418.3L450.433,2418.22L450.23,2418.12L449.824,2417.94L449.42,2417.76L449.219,2417.66L449.018,2417.57L448.817,2417.47L448.617,2417.38L448.417,2417.28L447.82,2416.98L447.424,2416.78L447.03,2416.58L446.833,2416.47L446.637,2416.37L446.442,2416.26L446.247,2416.16L446.052,2416.05L445.47,2415.72L445.277,2415.62L445.085,2415.51L444.893,2415.39L444.701,2415.28L444.51,2415.17L444.32,2415.05L444.129,2414.94L443.94,2414.83L443.75,2414.71L443.561,2414.59L443.373,2414.47L443.185,2414.36L442.811,2414.12L442.439,2413.88L442.253,2413.75L442.068,2413.63L441.884,2413.51L441.7,2413.38L441.516,2413.26L441.333,2413.13L441.151,2413L440.969,2412.88L440.787,2412.75L440.606,2412.62L440.066,2412.23L439.888,2412.1L439.709,2411.96L439.531,2411.83L439.354,2411.7L439.177,2411.56L439.001,2411.43L438.825,2411.29L438.475,2411.01L438.301,2410.88L438.127,2410.74L437.954,2410.6L437.782,2410.45L437.438,2410.17L437.268,2410.03L437.097,2409.88L436.928,2409.74L436.758,2409.6L436.422,2409.3L436.254,2409.16L436.087,2409.01L435.755,2408.71L435.59,2408.56L435.098,2408.11L434.935,2407.95L434.773,2407.8L434.612,2407.64L434.45,2407.49L434.29,2407.33L434.13,2407.18L433.812,2406.86L433.654,2406.7L433.34,2406.38L433.028,2406.06L432.873,2405.9L432.719,2405.74L432.565,2405.57L432.412,2405.41L432.26,2405.25L432.108,2405.08L431.957,2404.91L431.806,2404.75L431.657,2404.58L431.507,2404.41L431.063,2403.9L430.625,2403.39L430.481,2403.22L430.337,2403.04L430.193,2402.87L430.051,2402.69L429.909,2402.52L429.767,2402.34L429.627,2402.16L429.487,2401.99L429.347,2401.81L429.071,2401.45L428.797,2401.09L428.661,2400.91L428.526,2400.73L428.392,2400.55L428.258,2400.36L428.125,2400.18L427.992,2399.99L427.861,2399.81L427.599,2399.43L427.47,2399.25L427.341,2399.06L427.213,2398.87L426.959,2398.49L426.833,2398.3L426.583,2397.92L426.46,2397.73L426.337,2397.53L426.214,2397.34L426.093,2397.15L425.972,2396.95L425.852,2396.76L425.614,2396.36L425.496,2396.17L425.379,2395.97L425.263,2395.77L425.033,2395.37L424.919,2395.17L424.806,2394.97L424.694,2394.77L424.583,2394.57L424.473,2394.37L424.255,2393.97L424.148,2393.76L424.041,2393.56L423.936,2393.36L423.831,2393.15L423.727,2392.95L423.624,2392.75L423.522,2392.54L423.421,2392.34L423.32,2392.13L423.221,2391.93L423.025,2391.51L422.928,2391.31L422.738,2390.89L422.644,2390.69L422.458,2390.27L422.367,2390.07L422.187,2389.65L422.011,2389.23L421.924,2389.02L421.838,2388.81L421.753,2388.6L421.669,2388.39L421.586,2388.18L421.422,2387.76L421.262,2387.34L421.183,2387.12L421.029,2386.7L420.953,2386.49L420.878,2386.28L420.803,2386.06L420.73,2385.85L420.658,2385.64L420.586,2385.42L420.516,2385.21L420.446,2384.99L420.377,2384.78L420.309,2384.57L420.242,2384.35L420.176,2384.14L420.111,2383.92L420.047,2383.7L419.983,2383.49L419.921,2383.27L419.859,2383.06L419.798,2382.84L419.739,2382.63L419.68,2382.41L419.622,2382.19L419.565,2381.98L419.508,2381.76L419.453,2381.54L419.399,2381.32L419.345,2381.11L419.292,2380.89L419.19,2380.45L419.14,2380.24L419.091,2380.02L419.043,2379.8L418.949,2379.36L418.859,2378.92L418.773,2378.48L418.731,2378.26L418.69,2378.05L418.65,2377.83L418.611,2377.61L418.573,2377.39L418.536,2377.16L418.499,2376.95L418.464,2376.72L418.429,2376.5L418.395,2376.28L418.362,2376.06L418.331,2375.84L418.299,2375.62L418.269,2375.4L418.24,2375.18L418.184,2374.74L418.158,2374.52L418.132,2374.29L418.107,2374.07L418.061,2373.63L418.039,2373.41L418.018,2373.19L417.997,2372.96L417.978,2372.74L417.942,2372.3L417.925,2372.08L417.91,2371.85L417.895,2371.63L417.881,2371.41L417.868,2371.19L417.856,2370.97L417.844,2370.74L417.834,2370.52L417.816,2370.08L417.808,2369.85L417.796,2369.41L417.791,2369.19L417.787,2368.96L417.781,2368.52L417.78,2368.3L417.78,2367.85L417.781,2367.63L417.784,2367.41L417.787,2367.18L417.791,2366.96L417.796,2366.74L417.802,2366.52L417.808,2366.29L417.816,2366.07L417.834,2365.63L417.844,2365.4L417.868,2364.96L417.881,2364.74L417.895,2364.51L417.925,2364.07L417.942,2363.85L417.978,2363.41L417.997,2363.18L418.039,2362.74L418.061,2362.52L418.084,2362.3L418.107,2362.07L418.132,2361.85L418.184,2361.41L418.24,2360.97L418.269,2360.75L418.299,2360.53L418.331,2360.3L418.362,2360.08L418.395,2359.86L418.429,2359.64L418.499,2359.2L418.573,2358.76L418.611,2358.54L418.65,2358.32L418.69,2358.1L418.731,2357.88L418.773,2357.66L418.859,2357.22L418.904,2357.01L418.949,2356.79L419.043,2356.35L419.091,2356.13L419.14,2355.91L419.19,2355.69L419.241,2355.48L419.292,2355.26L419.345,2355.04L419.399,2354.82L419.453,2354.61L419.508,2354.39L419.622,2353.95L419.68,2353.74L419.798,2353.3L419.859,2353.09L419.921,2352.87L419.983,2352.66L420.047,2352.44L420.111,2352.23L420.176,2352.01L420.242,2351.8L420.309,2351.58L420.377,2351.37L420.446,2351.15L420.516,2350.94L420.586,2350.72L420.73,2350.3L420.803,2350.09L420.878,2349.87L420.953,2349.66L421.029,2349.45L421.106,2349.24L421.183,2349.02L421.262,2348.81L421.422,2348.39L421.586,2347.97L421.669,2347.76L421.753,2347.55L421.838,2347.34L421.924,2347.13L422.011,2346.92L422.187,2346.5L422.367,2346.08L422.458,2345.87L422.551,2345.67L422.644,2345.46L422.738,2345.25L422.833,2345.05L422.928,2344.84L423.025,2344.63L423.123,2344.43L423.221,2344.22L423.32,2344.01L423.522,2343.61L423.624,2343.4L423.727,2343.2L423.831,2342.99L424.041,2342.59L424.148,2342.39L424.255,2342.18L424.473,2341.78L424.583,2341.58L424.694,2341.38L424.806,2341.18L424.919,2340.97L425.033,2340.78L425.148,2340.58L513.2,2188.07L648.781,2422.9ZM1125.14,2422.9L694.861,2422.9L536.24,2148.16L755.967,1767.58L1120.69,1767.58L1125.14,2422.9ZM435.797,2346.71L435.7,2346.88L435.615,2347.02L435.529,2347.18L435.437,2347.34L435.349,2347.5L435.264,2347.66L435.181,2347.81L435.095,2347.97L435.013,2348.12L434.928,2348.28L434.847,2348.44L434.767,2348.6L434.685,2348.76L434.604,2348.92L434.449,2349.23L434.365,2349.4L434.291,2349.55L434.216,2349.71L434.142,2349.87L434.066,2350.03L433.988,2350.2L433.916,2350.36L433.844,2350.51L433.774,2350.67L433.699,2350.84L433.627,2351L433.558,2351.16L433.488,2351.32L433.424,2351.48L433.282,2351.82L433.222,2351.96L433.153,2352.13L433.087,2352.3L433.022,2352.46L432.96,2352.62L432.901,2352.78L432.831,2352.96L432.769,2353.12L432.651,2353.44L432.593,2353.6L432.529,2353.78L432.472,2353.94L432.415,2354.11L432.36,2354.27L432.306,2354.43L432.244,2354.61L432.191,2354.77L432.137,2354.94L432.081,2355.11L432.032,2355.27L431.98,2355.43L431.931,2355.59L431.878,2355.77L431.825,2355.94L431.778,2356.1L431.732,2356.26L431.685,2356.43L431.635,2356.61L431.586,2356.78L431.543,2356.94L431.499,2357.11L431.455,2357.27L431.411,2357.44L431.366,2357.62L431.324,2357.78L431.284,2357.95L431.241,2358.12L431.202,2358.29L431.164,2358.45L431.124,2358.63L431.087,2358.79L431.048,2358.97L431.012,2359.14L430.978,2359.3L430.941,2359.48L430.907,2359.64L430.837,2360L430.808,2360.15L430.777,2360.32L430.742,2360.51L430.712,2360.68L430.684,2360.84L430.654,2361.02L430.626,2361.18L430.574,2361.52L430.546,2361.7L430.519,2361.87L430.495,2362.04L430.472,2362.21L430.448,2362.39L430.426,2362.55L430.404,2362.72L430.36,2363.08L430.341,2363.25L430.323,2363.41L430.303,2363.59L430.253,2364.09L430.221,2364.45L430.207,2364.62L430.194,2364.79L430.181,2364.97L430.169,2365.14L430.158,2365.3L430.146,2365.48L430.136,2365.66L430.126,2365.83L430.118,2366L430.11,2366.18L430.102,2366.35L430.096,2366.51L430.09,2366.69L430.085,2366.86L430.081,2367.03L430.073,2367.39L430.071,2367.56L430.069,2367.72L430.068,2367.91L430.068,2368.24L430.069,2368.42L430.073,2368.76L430.081,2369.12L430.085,2369.29L430.09,2369.45L430.096,2369.64L430.102,2369.8L430.11,2369.97L430.118,2370.15L430.126,2370.32L430.136,2370.48L430.146,2370.66L430.158,2370.85L430.169,2371.01L430.181,2371.18L430.194,2371.36L430.207,2371.53L430.221,2371.7L430.237,2371.87L430.253,2372.05L430.269,2372.22L430.286,2372.39L430.303,2372.55L430.323,2372.74L430.341,2372.9L430.361,2373.07L430.382,2373.25L430.404,2373.43L430.426,2373.6L430.448,2373.76L430.472,2373.94L430.495,2374.11L430.546,2374.45L430.574,2374.63L430.6,2374.8L430.626,2374.96L430.653,2375.13L430.684,2375.31L430.713,2375.47L430.743,2375.64L430.777,2375.83L430.808,2375.99L430.836,2376.15L430.872,2376.33L430.907,2376.51L430.941,2376.67L430.978,2376.85L431.012,2377.01L431.048,2377.18L431.087,2377.35L431.124,2377.52L431.164,2377.69L431.202,2377.86L431.241,2378.02L431.284,2378.2L431.324,2378.36L431.365,2378.53L431.41,2378.7L431.456,2378.88L431.542,2379.2L431.587,2379.37L431.636,2379.54L431.685,2379.72L431.777,2380.04L431.826,2380.21L431.878,2380.38L431.931,2380.55L431.981,2380.72L432.032,2380.88L432.081,2381.04L432.137,2381.21L432.191,2381.38L432.244,2381.54L432.306,2381.72L432.36,2381.88L432.415,2382.04L432.471,2382.2L432.528,2382.36L432.595,2382.55L432.653,2382.71L432.71,2382.87L432.769,2383.02L432.831,2383.19L432.901,2383.37L432.96,2383.53L433.022,2383.68L433.085,2383.84L433.222,2384.18L433.282,2384.33L433.424,2384.67L433.558,2384.99L433.627,2385.14L433.699,2385.31L433.774,2385.48L433.844,2385.64L433.916,2385.79L433.988,2385.95L434.064,2386.11L434.142,2386.28L434.216,2386.44L434.291,2386.59L434.367,2386.75L434.447,2386.91L434.529,2387.08L434.607,2387.23L434.683,2387.38L434.767,2387.55L434.847,2387.71L434.928,2387.86L435.013,2388.02L435.095,2388.18L435.184,2388.34L435.264,2388.49L435.349,2388.65L435.437,2388.8L435.525,2388.96L435.612,2389.12L435.703,2389.28L435.793,2389.43L435.876,2389.58L435.964,2389.73L436.063,2389.89L436.15,2390.04L436.24,2390.19L436.34,2390.35L436.425,2390.49L436.521,2390.65L436.623,2390.81L436.715,2390.96L436.802,2391.09L436.896,2391.24L437,2391.4L437.098,2391.55L437.198,2391.7L437.293,2391.84L437.389,2391.98L437.486,2392.13L437.587,2392.27L437.695,2392.43L437.793,2392.57L437.885,2392.7L437.991,2392.85L438.094,2392.99L438.199,2393.14L438.306,2393.28L438.407,2393.42L438.513,2393.56L438.619,2393.71L438.721,2393.84L438.824,2393.98L438.934,2394.12L439.038,2394.25L439.147,2394.39L439.263,2394.54L439.368,2394.67L439.474,2394.8L439.592,2394.95L439.698,2395.08L439.805,2395.21L439.924,2395.35L440.14,2395.61L440.261,2395.75L440.37,2395.88L440.487,2396.01L440.596,2396.14L440.83,2396.4L440.941,2396.53L441.066,2396.67L441.178,2396.79L441.291,2396.91L441.411,2397.04L441.537,2397.18L441.651,2397.3L441.766,2397.42L441.894,2397.55L442.016,2397.68L442.131,2397.8L442.247,2397.92L442.371,2398.04L442.501,2398.17L442.626,2398.3L442.743,2398.41L442.868,2398.53L442.994,2398.66L443.113,2398.77L443.239,2398.89L443.493,2399.13L443.749,2399.37L443.871,2399.48L443.992,2399.59L444.129,2399.71L444.26,2399.83L444.382,2399.94L444.513,2400.05L444.651,2400.18L444.783,2400.29L444.907,2400.4L445.04,2400.51L445.172,2400.62L445.298,2400.72L445.432,2400.84L445.574,2400.95L445.708,2401.06L445.834,2401.16L445.977,2401.28L446.106,2401.38L446.378,2401.6L446.651,2401.81L446.926,2402.02L447.057,2402.11L447.205,2402.22L447.335,2402.32L447.474,2402.42L447.614,2402.52L447.761,2402.63L447.91,2402.73L448.044,2402.83L448.176,2402.92L448.317,2403.02L448.459,2403.12L448.602,2403.22L448.754,2403.32L448.897,2403.41L449.031,2403.5L449.175,2403.6L449.319,2403.69L449.464,2403.78L449.615,2403.88L449.76,2403.97L449.899,2404.06L450.046,2404.15L450.198,2404.25L450.492,2404.43L450.636,2404.51L450.777,2404.6L450.936,2404.69L451.091,2404.78L451.229,2404.86L451.379,2404.95L451.528,2405.03L451.674,2405.12L451.824,2405.2L451.985,2405.29L452.137,2405.37L452.278,2405.45L452.435,2405.53L452.587,2405.62L452.74,2405.7L452.899,2405.78L453.041,2405.85L453.195,2405.93L453.354,2406.01L453.508,2406.09L453.663,2406.17L453.818,2406.24L453.979,2406.32L454.129,2406.39L454.274,2406.46L454.43,2406.53L454.598,2406.61L454.761,2406.69L454.912,2406.76L455.228,2406.9L455.375,2406.97L455.703,2407.11L455.851,2407.17L456.011,2407.24L456.176,2407.31L456.342,2407.38L456.502,2407.44L456.652,2407.5L456.807,2407.56L456.973,2407.63L457.147,2407.7L457.303,2407.76L457.458,2407.82L457.633,2407.88L457.785,2407.94L457.941,2408L458.122,2408.06L458.279,2408.12L458.431,2408.17L458.609,2408.23L458.771,2408.29L458.924,2408.34L459.091,2408.4L459.265,2408.46L459.432,2408.51L459.587,2408.56L459.75,2408.61L459.922,2408.66L460.09,2408.72L460.258,2408.77L460.419,2408.82L460.583,2408.87L460.764,2408.92L460.922,2408.96L461.087,2409.01L461.26,2409.06L461.431,2409.1L461.593,2409.15L461.755,2409.19L461.94,2409.24L462.102,2409.28L462.268,2409.32L462.444,2409.37L462.604,2409.41L462.78,2409.45L462.957,2409.49L463.121,2409.53L463.285,2409.56L463.447,2409.6L463.625,2409.64L463.806,2409.68L463.984,2409.71L464.146,2409.75L464.312,2409.78L464.494,2409.82L464.66,2409.85L464.837,2409.88L465.004,2409.91L465.173,2409.94L465.533,2410L465.701,2410.03L465.866,2410.06L466.05,2410.09L466.218,2410.11L466.4,2410.14L466.569,2410.17L466.738,2410.19L466.922,2410.22L467.09,2410.24L467.273,2410.26L467.445,2410.28L467.615,2410.3L467.798,2410.33L467.971,2410.35L468.141,2410.36L468.324,2410.38L468.67,2410.42L468.853,2410.43L469.026,2410.45L469.213,2410.46L469.385,2410.48L469.558,2410.49L469.745,2410.51L469.918,2410.52L470.44,2410.55L470.627,2410.56L470.816,2410.57L470.977,2410.57L471.151,2410.58L471.34,2410.59L471.529,2410.59L471.704,2410.6L472.056,2410.6L472.245,2410.61L627.498,2410.61L513.2,2212.64L435.797,2346.71ZM763.061,1779.87L550.429,2148.16L701.955,2410.61L1112.77,2410.61L1108.49,1779.87L763.061,1779.87Z" style="fill:url(#_Linear4);"/>
                                        </g>
                                    </g>
                                </g>
                            </g>
                        </g>
                    </g>
                </g>
            </g>
        </g>
    </g>
    <defs>
        <radialGradient id="_Radial3" cx="0" cy="0" r="1" gradientUnits="userSpaceOnUse" gradientTransform="matrix(1216.45,0,0,1216.45,860.679,1596.55)"><stop offset="0" style="stop-color:rgb(107,225,251);stop-opacity:1"/><stop offset="1" style="stop-color:rgb(56,189,250);stop-opacity:1"/></radialGradient>
        <linearGradient id="_Linear4" x1="0" y1="0" x2="1" y2="0" gradientUnits="userSpaceOnUse" gradientTransform="matrix(-0.0178722,-1024,1024,-0.0178722,1.81089e+06,2781.44)"><stop offset="0" style="stop-color:rgb(74,197,250);stop-opacity:1"/><stop offset="1" style="stop-color:rgb(151,232,252);stop-opacity:1"/></linearGradient>
    </defs>
</svg>
