<?xml version="1.0" encoding="UTF-8" standalone="no"?>
<!DOCTYPE svg PUBLIC "-//W3C//DTD SVG 1.1//EN" "http://www.w3.org/Graphics/SVG/1.1/DTD/svg11.dtd">
<svg width="100%" height="100%" viewBox="0 0 360 360" version="1.1" xmlns="http://www.w3.org/2000/svg" xmlns:xlink="http://www.w3.org/1999/xlink" xml:space="preserve" xmlns:serif="http://www.serif.com/" style="fill-rule:evenodd;clip-rule:evenodd;stroke-linejoin:round;stroke-miterlimit:2;">
    <g transform="matrix(1,0,0,1,-60,-60)">
        <path d="M342.49,420L137.51,420C94.7,420 60,385.3 60,342.49L60,137.51C60,94.7 94.7,60 137.51,60L342.48,60C385.3,60 420,94.7 420,137.51L420,342.48C420,385.3 385.3,420 342.49,420Z" style="fill:rgb(13,71,161);fill-rule:nonzero;"/>
        <path d="M420,137.51C420,94.7 385.3,60 342.49,60L137.51,60C94.7,60 60,94.7 60,137.51L60,227.79C90,260 145.02,299.19 196.46,298.85C264.94,298.4 366.54,271.66 420,214.07L420,137.51Z" style="fill:rgb(21,101,192);fill-rule:nonzero;"/>
        <path d="M420,137.51C420,94.7 385.3,60 342.49,60L137.51,60C94.7,60 60,94.7 60,137.51L60,225.01C90,260 132.19,273.59 196.94,274.06C301.43,274.82 383.28,225.77 420,179.92L420,137.51Z" style="fill:rgb(30,136,229);fill-rule:nonzero;"/>
        <path d="M420,137.51C420,94.7 385.3,60 342.49,60L137.51,60C94.7,60 60,94.7 60,137.51L60,219.31C104.08,246 150.77,251.93 186.74,252.67C291.61,253.27 386.11,200.31 420,138.69L420,137.51Z" style="fill:rgb(41,182,246);fill-rule:nonzero;"/>
        <path d="M342.49,60L137.51,60C94.7,60 60,94.7 60,137.51L60,197.31C101.67,224.39 144.72,232.13 189.17,231.77C261.11,231.77 376.35,193.45 411.82,102.99C399.11,77.53 372.88,60 342.49,60Z" style="fill:rgb(0,229,255);fill-rule:nonzero;"/>
        <path d="M342.49,60L137.51,60C94.7,60 60,94.7 60,137.51L60,174.42C107.48,206.39 165.43,220.45 237.78,203.09C327.21,181.63 377.89,133.82 396.08,81.6C382.16,68.25 363.3,60 342.49,60Z" style="fill:rgb(24,255,255);fill-rule:nonzero;"/>
        <path d="M205.35,60L137.51,60C94.7,60 60,94.7 60,137.51L60,232.85L60.63,233.74C103.13,293.74 208.13,332.49 276.88,269.37C316.88,219.37 293.76,137.49 263.75,110.62C248.68,97.12 225.1,76.84 205.35,60Z" style="fill:rgb(68,138,255);fill-rule:nonzero;"/>
        <path d="M209.73,60L137.51,60C94.7,60 60,94.7 60,137.51L60,234.69C110.79,274.22 190.05,289.79 245.63,238.75C285.63,188.75 262.51,106.87 232.5,80C226.13,74.3 218.21,67.35 209.73,60Z" style="fill:rgb(64,196,255);fill-rule:nonzero;"/>
        <path d="M137.51,60C94.7,60 60,94.7 60,137.51L60,216.83C106.86,236.58 163.15,236.49 205.63,197.5C237.87,157.2 229.08,96.22 208.75,60L137.51,60Z" style="fill:rgb(0,229,255);fill-rule:nonzero;"/>
        <path d="M137.51,60C94.7,60 60,94.7 60,137.51L60,184.77C94.76,188.59 130.55,180.18 159.79,153.33C180.98,126.84 184.39,91.45 178.5,60L137.51,60Z" style="fill:rgb(24,255,255);fill-rule:nonzero;"/>
        <path d="M126.08,148.7C126.08,148.7 194.41,251.97 251.86,286.9C230.12,293.89 182.92,322.45 100.62,271.98C121.58,300.71 158.69,358.33 249.53,352.9C281.36,351.35 300.77,341.25 318.63,334.27C336.49,327.29 353.57,328.06 368.32,354.46C371.43,330.39 372.2,307.87 347.36,282.25C347.36,282.25 371.92,188.62 267.35,114.74C289.09,158.22 301.68,182.74 291.46,242.65C268.17,227.12 182.15,157.85 162.74,135.33C176.72,160.18 216.93,214.69 230.9,228.67C206.06,211.59 126.08,148.7 126.08,148.7Z" style="fill:rgb(33,33,33);fill-rule:nonzero;"/>
    </g>
</svg>
