<?xml version="1.0" encoding="UTF-8" standalone="no"?>
<!DOCTYPE svg PUBLIC "-//W3C//DTD SVG 1.1//EN" "http://www.w3.org/Graphics/SVG/1.1/DTD/svg11.dtd">
<svg width="100%" height="100%" viewBox="0 0 12376 7173" version="1.1" xmlns="http://www.w3.org/2000/svg" xmlns:xlink="http://www.w3.org/1999/xlink" xml:space="preserve" xmlns:serif="http://www.serif.com/" style="fill-rule:evenodd;clip-rule:evenodd;stroke-linejoin:round;stroke-miterlimit:2;">
    <g transform="matrix(1,0,0,1,-223.968,-199.892)">
        <g transform="matrix(5.72546,1.08864,-1.08864,5.72546,-1841.9,-3623.31)">
            <g transform="matrix(1,0,0,1,1255.87,792.557)">
                <path d="M0,-90.33C-31.402,-57.433 -47.135,-14.888 -47.449,27.919C-47.566,43.836 -34.553,56.711 -18.929,56.137C23.091,54.592 64.408,37.363 95.81,4.466C133.848,-35.387 148.896,-89.392 141.395,-140.879C90.63,-147.041 38.039,-130.183 0,-90.33" style="fill:rgb(49,147,94);fill-rule:nonzero;"/>
            </g>
        </g>
        <g transform="matrix(5.72546,1.08864,-1.08864,5.72546,-1841.9,-3623.31)">
            <g transform="matrix(1,0,0,1,1273.14,639.125)">
                <path d="M0,150.867C-3.558,152.141 -7.675,151.665 -11.002,149.22C-16.378,145.27 -17.653,137.678 -13.848,132.264C41.15,53.978 114.377,4.458 117.466,2.388C122.926,-1.274 130.34,0.312 134.015,5.929C137.69,11.541 136.24,19.06 130.776,22.721C129.83,23.357 57.92,72.12 5.62,146.569C4.169,148.631 2.189,150.081 0,150.867" style="fill:rgb(125,183,119);fill-rule:nonzero;"/>
            </g>
        </g>
        <g transform="matrix(5.72546,1.08864,-1.08864,5.72546,-1841.9,-3623.31)">
            <g transform="matrix(1,0,0,1,1605.49,579.995)">
                <path d="M0,398.337C-1.03,398.706 -2.103,398.995 -3.214,399.195C-14.321,401.199 -25.052,393.641 -27.189,382.309C-27.424,381.088 -40.985,312.034 -83.621,235.663C-108.467,191.159 -138.218,152.863 -172.048,121.844C-213.971,83.403 -262.452,56 -316.142,40.393C-327.061,37.221 -333.512,25.674 -330.551,14.607C-327.591,3.541 -316.34,-2.862 -305.42,0.314C-245.309,17.785 -191.08,48.506 -144.242,91.624C-107.016,125.894 -74.428,167.975 -47.38,216.705C-1.552,299.274 12.469,371.98 13.042,375.034C14.961,385.236 9.258,395.021 0,398.337" style="fill:rgb(125,183,119);fill-rule:nonzero;"/>
            </g>
        </g>
        <g transform="matrix(5.72546,1.08864,-1.08864,5.72546,-1841.9,-3623.31)">
            <g transform="matrix(1,0,0,1,1461.25,780.903)">
                <path d="M0,-109.284C-21.476,-129.053 -44.524,-146.185 -68.963,-160.661C-62.872,-141.643 -58.575,-122.25 -56.127,-102.564C-46.392,-95.248 -36.935,-87.436 -27.807,-79.068C6.022,-48.047 35.774,-9.753 60.62,34.751C63.741,40.34 66.7,45.89 69.517,51.377C74.458,30.12 78.02,8.872 80.184,-12.289C56.75,-49.245 29.873,-81.786 0,-109.284" style="fill:rgb(49,147,94);fill-rule:nonzero;"/>
            </g>
        </g>
        <g transform="matrix(5.72546,1.08864,-1.08864,5.72546,-1841.9,-3623.31)">
            <g transform="matrix(1,0,0,1,1345.28,554.858)">
                <path d="M0,494.764C-0.925,494.152 -1.815,493.459 -2.661,492.68C-11.107,484.904 -11.861,471.721 -4.345,463.233C-3.539,462.315 41.923,410.15 75.071,330.129C94.39,283.496 105.823,236.607 109.057,190.764C113.063,133.953 104.394,78.431 83.297,25.742C79.006,15.025 84.014,2.925 94.482,-1.287C104.95,-5.5 116.914,-0.23 121.205,10.488C144.826,69.478 154.469,131.626 149.861,195.196C146.199,245.722 133.569,297.166 112.319,348.097C76.314,434.398 28.29,489.112 26.262,491.399C19.49,499.035 8.324,500.264 0,494.764" style="fill:rgb(125,183,119);fill-rule:nonzero;"/>
            </g>
        </g>
        <g transform="matrix(5.72546,1.08864,-1.08864,5.72546,-1841.9,-3623.31)">
            <g transform="matrix(-0.94142,0.337237,0.337237,0.94142,1791.73,1243.63)">
                <path d="M69.545,-400.363C-41.787,-400.363 -132.04,-308.035 -132.04,-194.142C-132.04,-80.249 -41.788,12.079 69.545,12.08C180.877,12.08 271.13,-80.248 271.13,-194.142C271.131,-308.035 180.878,-400.364 69.545,-400.363" style="fill:rgb(237,111,115);fill-rule:nonzero;"/>
            </g>
        </g>
        <g transform="matrix(5.72546,1.08864,-1.08864,5.72546,-1841.9,-3623.31)">
            <g transform="matrix(1,0,0,1,1530.73,1066.98)">
                <path d="M0,63.929C-34.686,-32.898 5.858,-137.98 91.231,-185.093C80.941,-183.181 70.677,-180.436 60.517,-176.797C-44.291,-139.252 -98.119,-21.897 -59.711,85.321C-21.303,192.539 94.797,249.022 199.605,211.477C209.764,207.838 219.437,203.441 228.602,198.383C132.731,216.193 34.686,160.756 0,63.929" style="fill:rgb(227,76,77);fill-rule:nonzero;"/>
            </g>
        </g>
        <g transform="matrix(5.72546,1.08864,-1.08864,5.72546,-1841.9,-3623.31)">
            <g transform="matrix(1,0,0,1,1571.7,1093.34)">
                <path d="M0,40.43C-6.185,42.646 -13.032,39.313 -15.298,32.988L-21.576,15.462C-23.842,9.137 -20.668,2.214 -14.483,-0.002C-8.299,-2.216 -1.452,1.116 0.814,7.441L7.092,24.966C9.358,31.291 6.185,38.215 0,40.43" style="fill:rgb(59,73,75);fill-rule:nonzero;"/>
            </g>
        </g>
        <g transform="matrix(5.72546,1.08864,-1.08864,5.72546,-1841.9,-3623.31)">
            <g transform="matrix(1,0,0,1,1761.01,1025.52)">
                <path d="M0,40.432C-6.185,42.647 -13.032,39.315 -15.298,32.99L-21.576,15.464C-23.842,9.139 -20.668,2.216 -14.483,0C-8.299,-2.215 -1.451,1.118 0.814,7.443L7.092,24.967C9.358,31.293 6.185,38.217 0,40.432" style="fill:rgb(59,73,75);fill-rule:nonzero;"/>
            </g>
        </g>
        <g transform="matrix(5.72546,1.08864,-1.08864,5.72546,-1841.9,-3623.31)">
            <g transform="matrix(1,0,0,1,1669.71,1069.48)">
                <path d="M0,39.736C-12.336,44.155 -25.815,43.026 -36.983,36.634C-42.759,33.33 -44.876,25.923 -41.711,20.093C-38.548,14.264 -31.3,12.215 -25.526,15.52C-20.394,18.457 -14.083,18.934 -8.208,16.83C-2.332,14.724 2.24,10.349 4.341,4.821C6.704,-1.399 13.603,-4.419 19.749,-1.923C25.895,0.572 28.964,7.637 26.598,13.858C22.031,25.884 12.335,35.317 0,39.736" style="fill:rgb(59,73,75);fill-rule:nonzero;"/>
            </g>
        </g>
        <g transform="matrix(5.72546,1.08864,-1.08864,5.72546,-1841.9,-3623.31)">
            <g transform="matrix(-0.941419,0.337239,0.337239,0.941419,1435.06,1318.12)">
                <path d="M69.545,-400.362C-41.788,-400.362 -132.04,-308.033 -132.04,-194.14C-132.04,-80.247 -41.787,12.081 69.545,12.082C180.878,12.081 271.131,-80.246 271.13,-194.14C271.131,-308.033 180.878,-400.362 69.545,-400.362" style="fill:rgb(237,111,115);fill-rule:nonzero;"/>
            </g>
        </g>
        <g transform="matrix(5.72546,1.08864,-1.08864,5.72546,-1841.9,-3623.31)">
            <g transform="matrix(1,0,0,1,1278.81,1007.48)">
                <path d="M0,315.282C-101.268,266.015 -145.302,143.094 -98.351,40.731C-79.702,0.074 -49.498,-31.215 -13.52,-51.088C-74.852,-39.72 -129.758,0.416 -158.062,62.121C-205.014,164.483 -160.98,287.406 -59.712,336.673C1.333,366.37 69.237,362.513 123.837,332.351C83.424,339.844 40.223,334.851 0,315.282" style="fill:rgb(227,76,77);fill-rule:nonzero;"/>
            </g>
        </g>
        <g transform="matrix(5.72546,1.08864,-1.08864,5.72546,-1841.9,-3623.31)">
            <g transform="matrix(1,0,0,1,1214.97,1088.67)">
                <path d="M0,40.999C-2.866,42.025 -6.131,41.935 -9.119,40.48C-15.093,37.574 -17.691,30.321 -14.921,24.282L-7.246,7.55C-4.476,1.512 2.615,-1.026 8.587,1.879C14.561,4.785 17.159,12.038 14.389,18.076L6.713,34.809C5.331,37.828 2.865,39.973 0,40.999" style="fill:rgb(59,73,75);fill-rule:nonzero;"/>
            </g>
        </g>
        <g transform="matrix(5.72546,1.08864,-1.08864,5.72546,-1841.9,-3623.31)">
            <g transform="matrix(1,0,0,1,1397.89,1177.66)">
                <path d="M0,40.999C-2.866,42.025 -6.131,41.935 -9.12,40.48C-15.093,37.574 -17.691,30.321 -14.922,24.283L-7.246,7.551C-4.476,1.512 2.615,-1.026 8.586,1.879C14.561,4.785 17.159,12.038 14.389,18.077L6.713,34.81C5.331,37.828 2.865,39.973 0,40.999" style="fill:rgb(59,73,75);fill-rule:nonzero;"/>
            </g>
        </g>
        <g transform="matrix(5.72546,1.08864,-1.08864,5.72546,-1841.9,-3623.31)">
            <g transform="matrix(1,0,0,1,1327.61,1141.02)">
                <path d="M0,43.726C-10.998,47.666 -23.375,46.915 -34.394,41.556C-46.314,35.757 -55.198,25.266 -58.77,12.777C-60.616,6.316 -56.986,-0.365 -50.667,-2.154C-44.345,-3.94 -37.725,-0.151 -35.878,6.309C-34.237,12.049 -30.041,16.926 -24.366,19.687C-18.691,22.448 -12.365,22.691 -7.022,20.349C-0.999,17.716 6.042,20.576 8.718,26.738C11.392,32.902 8.683,40.033 2.667,42.666C1.787,43.051 0.898,43.405 0,43.726" style="fill:rgb(59,73,75);fill-rule:nonzero;"/>
            </g>
        </g>
        <g transform="matrix(0.953703,0,0,0.953703,1126.02,-1987.08)">
            <text x="7311.35px" y="7810.77px" style="font-family:'FlowerPowerPersonalUse', 'Flower Power Personal Use';font-size:4460.42px;fill:white;">dy</text>
        </g>
        <g transform="matrix(1,0,0,1,295.591,-2105.87)">
            <text x="768.422px" y="7100.71px" style="font-family:'FlowerPowerPersonalUse', 'Flower Power Personal Use';font-size:4460.42px;fill:white;">F</text>
        </g>
    </g>
</svg>
